<?xml version="1.0" standalone="no"?>
<!DOCTYPE svg PUBLIC "-//W3C//DTD SVG 20010904//EN"
 "http://www.w3.org/TR/2001/REC-SVG-20010904/DTD/svg10.dtd">
<svg version="1.0" xmlns="http://www.w3.org/2000/svg"
 width="410.000000pt" height="340.000000pt" viewBox="0 0 410.000000 340.000000"
 preserveAspectRatio="xMidYMid meet">

<g transform="translate(0.000000,340.000000) scale(0.100000,-0.100000)"
fill="#b0a7d5" stroke-width="25" stroke="#b0a7d5">
<path d="M2635 3250 c-4 -6 9 -17 27 -24 131 -55 158 -64 164 -54 9 14 -3 22
-90 57 -87 34 -92 35 -101 21z"/>
<path d="M1761 3204 c-12 -15 -21 -41 -21 -61 l0 -33 -269 0 -268 1 -65 -68
c-35 -37 -101 -107 -146 -155 l-82 -87 0 -260 0 -261 -28 0 c-35 0 -52 -16
-52 -52 0 -21 -9 -33 -39 -53 -37 -23 -42 -24 -74 -10 -32 13 -36 13 -55 -8
-12 -12 -31 -44 -43 -71 l-21 -49 31 -24 c26 -21 31 -31 31 -67 0 -32 -6 -48
-25 -66 -32 -30 -31 -46 5 -103 35 -56 50 -64 91 -47 25 11 35 10 64 -6 27
-14 36 -27 43 -59 l8 -40 71 -3 c80 -3 103 10 103 56 0 21 9 32 38 49 34 19
40 20 71 7 18 -8 37 -11 42 -8 6 3 23 30 40 59 l30 54 341 3 340 3 19 24 c16
19 19 40 19 117 l0 94 81 0 c76 0 82 2 110 29 l29 29 0 151 0 151 145 0 c88 0
154 5 170 12 37 17 45 62 41 238 -2 85 -4 233 -5 328 -1 158 -3 174 -21 192
-19 19 -33 20 -374 20 l-355 0 -20 -26z m727 -16 c9 -9 12 -79 12 -252 l0
-239 -22 21 c-51 47 -131 48 -172 3 -24 -26 -63 -34 -98 -20 -26 11 -28 15
-28 66 0 47 -4 59 -29 84 -28 28 -33 29 -120 29 l-91 0 0 89 c0 119 -14 139
-103 143 -55 3 -62 5 -65 25 -2 12 2 31 8 42 10 21 18 21 353 21 254 0 346 -3
355 -12z m-590 -125 c7 -10 12 -49 12 -99 l0 -83 -240 -3 c-234 -3 -240 -4
-262 -26 l-23 -23 0 -350 0 -351 28 -24 c28 -24 29 -24 273 -24 l244 0 0 -89
c0 -61 -4 -92 -13 -100 -9 -7 -121 -11 -350 -11 -386 -1 -387 -1 -387 73 0 33
6 45 32 67 l32 27 -18 40 c-9 22 -28 52 -40 68 -23 28 -24 29 -65 16 -38 -11
-46 -10 -74 8 -20 13 -35 33 -42 58 -8 31 -16 39 -38 41 l-27 3 0 245 0 244
96 0 c164 0 186 21 192 185 2 61 5 115 6 120 2 6 118 9 327 7 290 -2 325 -4
337 -19z m-706 -118 c-3 -99 -5 -106 -30 -125 -22 -18 -38 -21 -109 -19 -48 1
-82 6 -81 11 4 12 211 238 218 238 3 0 4 -47 2 -105z m938 -115 c19 -19 20
-34 20 -350 0 -316 -1 -331 -20 -350 -19 -19 -34 -20 -350 -20 -317 0 -331 1
-350 20 -19 19 -20 33 -20 350 0 317 1 331 20 350 19 19 33 20 350 20 316 0
331 -1 350 -20z m335 -141 c35 -31 35 -31 35 -115 0 -72 -3 -85 -19 -94 -11
-5 -83 -10 -160 -10 l-141 0 0 99 0 99 49 -1 c38 -2 56 4 87 26 54 38 102 37
149 -4z m-1485 -476 c8 -29 21 -44 54 -64 40 -25 45 -25 76 -13 29 13 35 12
51 -2 9 -8 23 -29 29 -45 12 -27 10 -32 -14 -58 -21 -22 -26 -37 -26 -78 0
-45 4 -54 31 -77 l31 -26 -27 -46 c-18 -31 -31 -44 -42 -40 -44 17 -64 17 -90
-1 -15 -11 -36 -22 -45 -26 -11 -4 -18 -19 -20 -44 l-3 -38 -57 -3 -56 -3 -7
38 c-5 33 -13 42 -56 66 -47 26 -51 26 -79 12 -16 -8 -31 -15 -34 -15 -3 0
-17 21 -32 46 l-27 47 30 26 c28 24 30 30 27 80 -2 45 -7 58 -30 76 -25 20
-27 24 -15 51 25 59 36 67 75 54 32 -10 40 -9 74 11 48 29 62 47 62 81 0 27 1
28 55 28 54 0 54 0 65 -37z"/>
<path d="M2199 3061 c-40 -40 -40 -89 0 -133 76 -86 214 12 155 110 -34 59
-108 70 -155 23z m102 -12 c71 -37 19 -147 -56 -119 -49 19 -59 78 -19 109 30
24 46 26 75 10z"/>
<path d="M1103 2658 c2 -9 30 -13 92 -13 62 0 90 4 93 13 3 9 -20 12 -93 12
-73 0 -96 -3 -92 -12z"/>
<path d="M1100 2515 c0 -12 17 -15 95 -15 78 0 95 3 95 15 0 12 -17 15 -95 15
-78 0 -95 -3 -95 -15z"/>
<path d="M1107 2383 c-19 -18 1 -23 88 -23 78 0 95 3 95 15 0 12 -16 15 -88
15 -49 0 -92 -3 -95 -7z"/>
<path d="M1630 2660 c-18 -18 -20 -33 -20 -174 0 -140 2 -156 21 -180 30 -39
63 -33 159 28 124 78 164 109 168 130 9 46 -8 64 -130 140 -130 81 -164 90
-198 56z m167 -73 c55 -35 108 -69 118 -77 31 -26 13 -51 -90 -117 -133 -85
-143 -89 -163 -76 -14 9 -17 33 -20 158 -4 206 0 208 155 112z"/>
<path d="M845 2088 c-113 -65 -106 -228 12 -280 76 -34 145 -14 197 56 29 39
29 133 0 172 -53 72 -137 93 -209 52z m132 -25 c68 -32 93 -115 54 -179 -20
-33 -75 -64 -114 -64 -36 0 -89 40 -110 83 -23 45 -16 85 21 128 42 51 89 61
149 32z"/>
<path d="M2964 3099 c-4 -7 0 -15 8 -20 8 -4 42 -28 76 -54 60 -43 92 -56 92
-35 0 9 -148 119 -162 120 -4 0 -10 -5 -14 -11z"/>
<path d="M3245 2879 c-4 -5 21 -40 56 -77 34 -37 66 -71 71 -76 4 -5 10 -2 14
7 4 11 -14 39 -56 87 -64 71 -74 78 -85 59z"/>
<path d="M3476 2602 c-4 -6 14 -48 39 -94 54 -96 50 -92 65 -83 7 4 -3 32 -30
83 -47 87 -64 109 -74 94z"/>
<path d="M3024 2487 c-3 -8 -4 -43 -2 -78 2 -49 7 -64 18 -64 12 0 15 15 15
74 0 51 -4 76 -12 78 -7 3 -15 -2 -19 -10z"/>
<path d="M2730 2430 c0 -19 52 -140 60 -140 20 0 19 23 -6 84 -15 37 -32 66
-40 66 -8 0 -14 -4 -14 -10z"/>
<path d="M3297 2373 c-15 -37 -24 -70 -19 -75 12 -12 27 8 51 70 24 61 26 72
9 72 -7 0 -25 -30 -41 -67z"/>
<path d="M2891 2264 c-291 -78 -476 -372 -417 -663 31 -152 104 -268 230 -363
69 -51 96 -92 96 -143 0 -21 -5 -25 -28 -25 -53 0 -62 -23 -62 -156 0 -139 6
-153 68 -161 36 -5 42 -9 42 -30 0 -40 30 -93 64 -111 46 -25 270 -25 309 1
35 23 67 74 67 108 0 23 5 27 39 33 66 10 71 22 71 154 0 134 -10 162 -61 162
-24 0 -29 4 -29 25 0 44 27 93 69 123 207 150 299 359 257 590 -38 217 -198
392 -415 456 -68 20 -226 20 -300 0z m324 -39 c161 -56 297 -197 347 -360 25
-80 29 -220 8 -295 -33 -120 -119 -242 -218 -311 -63 -43 -93 -87 -100 -144
l-5 -45 -207 0 -207 0 -5 45 c-7 57 -39 104 -95 139 -91 58 -172 170 -218 301
-27 76 -25 231 4 315 59 171 183 296 352 355 66 23 85 25 184 22 69 -3 129
-11 160 -22z m123 -1304 c1 -66 -1 -118 -7 -124 -13 -13 -550 -18 -573 -5 -16
7 -18 24 -18 116 0 71 4 112 12 120 9 9 84 12 298 10 l285 -3 3 -114z m-108
-201 c0 -19 -11 -42 -29 -62 l-29 -33 -132 0 -132 0 -29 33 c-18 20 -29 43
-29 62 l0 30 190 0 190 0 0 -30z"/>
<path d="M2858 2060 c-19 -19 -40 -30 -58 -30 -29 0 -70 -39 -70 -66 0 -8 -15
-20 -34 -28 -43 -18 -59 -47 -53 -95 3 -27 -2 -43 -20 -64 -17 -21 -23 -41
-23 -74 0 -37 5 -50 33 -78 28 -28 31 -36 24 -62 -11 -37 12 -95 45 -117 13
-9 39 -17 57 -19 26 -3 36 -11 46 -34 34 -80 133 -84 170 -7 14 29 15 77 13
345 l-3 311 -28 24 c-37 32 -62 30 -99 -6z m78 -14 c18 -14 19 -31 22 -303 2
-158 0 -303 -3 -321 -12 -63 -92 -82 -117 -26 -9 19 -9 33 1 60 17 47 9 52
-30 20 -35 -29 -59 -28 -95 6 -28 26 -34 59 -17 98 7 18 13 33 13 35 0 1 -14
8 -30 15 -35 15 -50 37 -50 75 0 38 15 60 49 74 25 11 35 10 66 -4 19 -10 38
-15 42 -12 14 14 -9 37 -49 48 -24 6 -49 13 -55 15 -23 6 -14 52 14 74 l26 21
27 -26 c22 -21 36 -26 66 -23 27 2 40 8 42 20 3 14 -3 16 -32 11 -44 -7 -66 9
-66 47 0 37 21 52 66 48 30 -2 37 0 40 17 3 18 29 45 44 45 3 0 15 -6 26 -14z"/>
<path d="M3123 2066 l-28 -24 -3 -310 c-3 -271 -2 -315 13 -345 37 -80 136
-74 171 9 12 29 19 34 48 34 25 0 43 8 66 31 28 28 31 37 28 82 -3 45 0 53 30
83 41 41 45 101 8 149 -17 22 -22 39 -19 58 8 42 -16 87 -54 103 -18 8 -33 21
-33 30 0 23 -46 64 -74 64 -14 0 -37 13 -54 30 -37 36 -62 38 -99 6z m67 -16
c10 -5 20 -20 24 -33 5 -21 11 -24 48 -23 37 1 43 -2 52 -27 15 -42 -2 -62
-53 -61 -33 1 -41 -3 -39 -15 2 -11 16 -17 42 -19 30 -3 44 2 66 23 l27 26 26
-21 c28 -22 37 -68 15 -74 -7 -2 -32 -9 -56 -15 -40 -11 -63 -34 -49 -48 4 -3
22 2 41 11 19 9 42 13 53 10 78 -28 86 -124 13 -154 -23 -10 -29 -17 -24 -29
4 -9 9 -34 12 -56 3 -33 -1 -44 -21 -63 -33 -31 -81 -32 -105 -2 -24 30 -49
18 -27 -13 30 -43 13 -90 -37 -102 -21 -6 -33 -1 -54 20 l-26 26 4 311 c4 289
6 312 23 324 22 17 22 17 45 4z"/>
<path d="M2480 2256 c0 -7 23 -35 51 -61 37 -35 54 -44 62 -36 8 8 -2 24 -38
61 -49 50 -75 62 -75 36z"/>
<path d="M3525 2220 c-38 -38 -46 -53 -37 -62 9 -9 23 0 62 39 27 28 50 55 50
62 0 23 -27 9 -75 -39z"/>
<path d="M2310 2007 c0 -15 128 -70 141 -61 19 11 7 22 -50 48 -65 29 -91 33
-91 13z"/>
<path d="M3680 1993 c-65 -29 -67 -30 -54 -43 12 -12 144 43 144 60 0 16 -30
10 -90 -17z"/>
<path d="M2255 1720 c-13 -21 7 -28 78 -27 57 2 72 5 72 17 0 12 -16 16 -72
18 -42 2 -74 -1 -78 -8z"/>
<path d="M3687 1724 c-18 -18 -1 -24 69 -24 56 0 75 3 72 13 -5 13 -129 23
-141 11z"/>
<path d="M1401 1594 c-86 -40 -181 -108 -181 -129 0 -8 12 -45 27 -81 21 -53
24 -70 15 -83 -7 -9 -25 -38 -41 -66 -17 -27 -34 -56 -38 -63 -4 -7 -44 -19
-88 -26 -95 -14 -93 -10 -93 -176 0 -146 3 -153 63 -162 114 -16 113 -15 135
-65 11 -26 31 -61 44 -77 l23 -31 -30 -80 -30 -79 43 -38 c44 -39 190 -118
219 -118 9 0 38 27 64 60 l49 60 92 0 93 0 52 -65 52 -64 64 24 c70 26 159 80
190 114 19 22 19 23 -7 97 l-27 75 35 54 c19 30 38 65 43 78 8 21 20 26 91 37
64 10 83 17 92 34 17 30 17 269 0 289 -7 8 -38 18 -70 22 -90 10 -100 15 -111
46 -6 17 -24 50 -41 75 -16 25 -30 49 -30 53 0 5 13 40 28 79 19 46 26 75 20
85 -20 36 -216 148 -257 146 -9 0 -38 -27 -64 -60 l-49 -59 -91 0 -92 0 -50
65 c-28 35 -54 64 -60 64 -5 0 -44 -15 -84 -35z m133 -67 l49 -62 106 1 105 1
50 60 50 61 41 -15 c41 -16 170 -97 180 -113 3 -5 -8 -43 -25 -85 l-30 -76 24
-32 c14 -18 36 -57 50 -87 l25 -55 83 -15 83 -15 7 -55 c8 -57 1 -179 -11
-199 -4 -6 -42 -16 -84 -22 l-77 -11 -26 -52 c-14 -28 -36 -65 -50 -83 -30
-39 -30 -45 1 -127 14 -37 25 -68 25 -71 0 -10 -125 -88 -172 -108 l-51 -21
-26 30 c-14 16 -37 43 -51 61 -25 31 -25 31 -132 35 l-108 3 -50 -63 c-28 -34
-53 -62 -56 -62 -15 0 -163 83 -192 108 l-32 27 32 77 31 77 -27 35 c-15 20
-38 60 -52 90 l-24 53 -78 13 c-42 7 -80 17 -84 24 -9 13 -10 181 -2 224 6 29
8 31 88 42 l81 11 19 44 c10 25 33 64 52 89 l34 45 -30 78 -30 77 28 23 c31
26 179 103 196 102 6 0 33 -28 60 -62z"/>
<path d="M1617 1339 c-152 -23 -285 -160 -306 -313 -41 -301 261 -523 535
-394 71 33 130 92 168 168 40 82 52 153 37 233 -9 48 -8 63 6 92 14 28 14 38
3 65 -14 34 -60 63 -94 58 -12 -1 -43 12 -70 29 -82 55 -182 77 -279 62z m221
-64 c88 -48 90 -40 -56 -188 l-131 -132 -43 42 c-59 58 -91 68 -137 46 -40
-20 -58 -56 -47 -98 4 -16 44 -65 90 -112 81 -81 84 -83 131 -83 l49 0 158
157 c86 86 161 154 165 150 4 -4 7 -42 7 -85 0 -62 -6 -88 -28 -138 -100 -222
-372 -278 -550 -114 -70 64 -99 130 -104 230 -5 116 20 183 97 261 78 78 137
100 256 96 77 -2 98 -7 143 -32z m170 -71 c14 -9 22 -26 22 -43 0 -23 -32 -60
-177 -205 -151 -150 -182 -176 -207 -176 -25 0 -46 16 -113 82 -85 85 -96 107
-66 140 29 32 64 23 118 -32 27 -27 54 -50 59 -50 6 0 78 68 161 150 83 83
158 150 166 150 8 0 25 -7 37 -16z"/>
<path d="M580 1577 c0 -31 28 -178 35 -185 3 -3 9 -1 14 4 12 13 -21 196 -36
202 -8 2 -13 -6 -13 -21z"/>
<path d="M2373 1453 c-35 -15 -63 -32 -63 -40 0 -18 11 -17 85 13 36 15 65 32
65 40 0 19 -15 17 -87 -13z"/>
<path d="M3630 1467 c0 -20 129 -72 143 -58 7 7 -6 18 -44 34 -82 37 -99 41
-99 24z"/>
<path d="M2527 1222 c-47 -48 -58 -72 -34 -72 19 0 110 97 103 109 -11 18 -19
14 -69 -37z"/>
<path d="M3485 1260 c-7 -12 83 -110 101 -110 23 0 16 19 -23 61 -44 48 -69
63 -78 49z"/>
<path d="M660 1235 c0 -16 52 -147 70 -175 15 -24 35 2 20 26 -6 11 -24 50
-40 89 -28 67 -50 94 -50 60z"/>
<path d="M820 907 c0 -22 102 -157 118 -157 20 0 12 16 -48 99 -51 69 -70 85
-70 58z"/>
<path d="M2965 424 c-38 -24 -77 -48 -85 -53 -11 -6 -12 -12 -4 -20 13 -14
167 76 172 102 5 24 -3 21 -83 -29z"/>
<path d="M2623 268 c-90 -29 -118 -48 -69 -48 13 0 57 11 98 25 40 14 74 25
76 25 1 0 2 7 2 15 0 18 5 19 -107 -17z"/>
<path d="M1820 217 c0 -16 13 -20 120 -37 83 -13 80 -13 80 5 0 8 -3 15 -7 15
-17 1 -147 21 -169 26 -17 5 -24 2 -24 -9z"/>
<path d="M2266 201 c-50 -4 -81 -11 -84 -18 -3 -10 15 -13 70 -12 85 2 132 10
132 24 1 12 -17 13 -118 6z"/>
</g>
</svg>
