<?xml version="1.0" standalone="no"?>
<!DOCTYPE svg PUBLIC "-//W3C//DTD SVG 20010904//EN"
 "http://www.w3.org/TR/2001/REC-SVG-20010904/DTD/svg10.dtd">
<svg version="1.0" xmlns="http://www.w3.org/2000/svg"
 width="406.000000pt" height="366.000000pt" viewBox="0 0 406.000000 366.000000"
 preserveAspectRatio="xMidYMid meet">

<g transform="translate(0.000000,366.000000) scale(0.100000,-0.100000)"
fill="#b0a7d5" stroke-width="25" stroke="#b0a7d5">
<path d="M2736 3629 c-42 -12 -75 -47 -82 -88 -19 -111 -45 -155 -118 -194
-40 -21 -52 -22 -466 -27 -414 -5 -426 -6 -466 -27 -50 -27 -90 -73 -115 -131
-10 -24 -24 -42 -31 -41 -32 4 -51 -3 -73 -27 -22 -24 -25 -36 -25 -106 0 -75
2 -81 29 -109 18 -17 40 -29 56 -29 21 0 29 -8 44 -42 40 -94 122 -150 228
-156 l63 -4 0 -47 c0 -62 19 -87 71 -94 23 -3 45 -11 49 -17 4 -6 10 -77 14
-158 14 -313 18 -354 38 -374 16 -16 35 -18 156 -18 199 0 182 -27 182 296 0
204 3 264 13 265 82 5 107 29 107 100 0 47 1 49 28 49 43 0 114 -27 145 -56
35 -32 55 -72 63 -125 14 -88 53 -129 125 -129 52 0 92 24 113 67 13 27 16 68
16 202 l0 169 28 7 c60 14 109 54 136 107 61 122 5 257 -120 290 l-44 12 0
168 c0 182 -8 221 -51 249 -32 21 -78 28 -113 18z m107 -60 l27 -29 0 -556 0
-556 -29 -29 c-41 -40 -91 -40 -132 0 l-29 29 0 557 c0 379 3 563 11 576 14
27 67 50 99 43 14 -2 37 -18 53 -35z m-193 -581 l0 -412 -33 32 c-56 54 -119
72 -257 72 l-120 0 2 308 3 307 140 5 c151 5 178 14 234 74 14 14 26 26 28 26
2 0 3 -185 3 -412z m-442 0 l2 -308 -256 0 c-174 0 -270 4 -298 12 -55 17
-131 91 -145 143 -20 74 -20 75 63 75 72 0 104 11 70 24 -9 3 -45 6 -80 6
l-64 0 0 50 0 50 76 0 c56 0 75 3 72 13 -3 8 -30 13 -76 15 -67 3 -72 5 -72
25 0 40 47 124 85 152 61 47 106 53 375 52 l245 -2 3 -307z m774 146 c80 -56
101 -173 44 -249 -25 -32 -91 -75 -116 -75 -6 0 -10 61 -10 175 0 174 0 175
22 175 12 0 39 -12 60 -26z m-1512 -144 c0 -103 -1 -110 -20 -110 -47 0 -67
47 -60 145 3 41 32 71 73 74 4 1 7 -48 7 -109z m910 -383 c0 -24 -5 -48 -12
-55 -17 -17 -529 -17 -546 0 -13 13 -17 80 -5 91 3 4 132 7 285 7 l278 0 0
-43z m-120 -355 c0 -187 -3 -261 -12 -270 -17 -17 -262 -17 -276 1 -8 11 -32
360 -32 480 l0 47 160 0 160 0 0 -258z"/>
<path d="M1887 3461 c-85 -11 -48 -26 53 -22 100 3 114 6 105 22 -7 10 -79 10
-158 0z"/>
<path d="M1575 3401 c-95 -29 -120 -40 -108 -52 13 -13 195 41 201 59 5 16
-22 14 -93 -7z"/>
<path d="M3087 3272 c-27 -28 -35 -52 -18 -52 11 0 71 61 71 72 0 17 -27 7
-53 -20z"/>
<path d="M1245 3261 c-100 -56 -115 -66 -115 -78 0 -7 3 -13 6 -13 14 0 184
102 184 111 0 16 -23 10 -75 -20z"/>
<path d="M907 3017 c-62 -57 -82 -87 -57 -87 12 0 150 131 150 142 0 20 -31 2
-93 -55z"/>
<path d="M3160 2984 c0 -12 10 -14 52 -12 74 4 77 28 4 28 -44 0 -56 -3 -56
-16z"/>
<path d="M3330 2830 c0 -14 112 -170 122 -170 16 0 7 26 -28 80 -56 84 -94
121 -94 90z"/>
<path d="M708 2793 c-9 -10 -34 -47 -57 -82 -40 -62 -50 -91 -33 -91 11 0 122
163 122 179 0 16 -15 14 -32 -6z"/>
<path d="M3056 2753 c-7 -7 62 -83 76 -83 18 0 6 28 -25 58 -35 34 -40 36 -51
25z"/>
<path d="M3528 2515 c-3 -3 9 -40 27 -83 18 -42 35 -85 38 -94 7 -21 27 -24
27 -4 0 31 -66 186 -79 186 -4 0 -10 -2 -13 -5z"/>
<path d="M635 2461 c-72 -23 -114 -66 -135 -138 -15 -51 -7 -100 25 -147 l24
-36 -37 -19 c-76 -39 -114 -99 -131 -208 -18 -114 -15 -156 12 -181 22 -21 32
-22 206 -22 l183 0 -7 -76 c-7 -73 -7 -76 21 -105 l28 -29 259 0 c166 0 266 4
278 11 34 18 47 63 37 126 -5 31 -7 57 -5 60 2 2 80 4 173 5 93 0 179 4 191 9
12 4 29 19 38 33 15 23 16 36 5 113 -18 134 -34 174 -90 227 -27 25 -56 46
-65 46 -19 0 -19 2 6 50 56 107 19 224 -86 271 -73 34 -159 15 -217 -47 -55
-59 -64 -150 -24 -221 l24 -42 -34 -21 c-20 -11 -37 -20 -38 -20 -2 0 -6 13
-9 29 -8 39 -51 88 -100 113 -31 15 -54 19 -99 16 -71 -5 -122 -41 -155 -111
l-23 -46 -32 17 c-18 9 -34 17 -35 17 -1 1 9 23 22 50 30 59 32 122 5 174 -41
82 -138 128 -215 102z m135 -49 c129 -95 66 -292 -92 -292 -56 0 -104 30 -136
85 -62 108 32 245 158 230 25 -3 56 -13 70 -23z m790 6 c147 -75 94 -298 -71
-298 -93 0 -165 79 -157 172 3 27 14 62 25 76 23 32 97 72 133 72 14 0 46 -10
70 -22z m-381 -217 c97 -69 84 -218 -25 -271 -48 -24 -82 -25 -128 -6 -124 52
-133 229 -14 290 45 23 125 17 167 -13z m-489 -103 c36 1 82 3 102 4 38 2 84
-23 98 -53 4 -7 18 -37 32 -66 l25 -52 -28 -11 c-42 -18 -106 -92 -120 -139
l-12 -41 -183 0 c-227 0 -220 -5 -198 139 17 111 43 164 99 203 34 24 46 27
80 22 22 -4 69 -7 105 -6z m795 -1 c33 0 77 3 98 8 31 6 43 4 77 -19 65 -43
88 -88 104 -202 21 -150 30 -144 -199 -144 -160 0 -185 2 -185 15 0 47 -88
153 -139 170 -21 6 -21 6 4 43 14 20 25 46 25 58 0 41 70 87 120 78 19 -3 62
-6 95 -7z m-472 -202 c46 -19 98 -19 143 0 32 13 40 13 72 -1 82 -34 117 -93
133 -228 18 -144 34 -136 -276 -136 -310 0 -295 -7 -276 132 6 51 20 111 30
134 19 41 65 84 111 103 14 5 26 10 26 10 1 1 18 -6 37 -14z"/>
<path d="M3650 2144 c0 -17 16 -127 26 -171 7 -37 24 -26 24 15 -1 60 -24 165
-37 170 -7 2 -13 -4 -13 -14z"/>
<path d="M2634 2084 c-54 -28 -68 -65 -72 -191 l-4 -113 -248 0 c-226 0 -248
-2 -263 -18 -15 -17 -17 -76 -17 -641 l0 -622 23 -22 22 -23 667 1 666 0 27
25 c53 48 55 65 55 389 l0 300 143 3 c131 3 145 5 176 27 59 42 71 85 71 257
0 163 -8 202 -49 248 -43 47 -78 56 -216 56 l-125 0 0 116 c0 128 -12 169 -58
201 -25 16 -59 18 -397 20 -319 2 -374 0 -401 -13z m763 -24 c51 -18 63 -53
63 -184 l0 -116 -152 0 c-181 0 -221 -13 -263 -84 l-25 -43 0 -291 c0 -161 4
-292 8 -292 4 0 45 25 91 55 46 30 93 58 105 61 11 2 68 4 126 2 l105 -3 0
-249 0 -248 -250 -1 -250 -1 -3 30 c-5 57 -13 75 -37 86 -21 10 -24 18 -27 77
-3 58 -6 67 -27 78 -22 10 -24 17 -22 67 4 83 -10 92 -134 90 -65 -1 -103 2
-107 10 -4 6 -8 205 -8 441 0 390 2 433 18 465 9 19 28 40 42 47 32 16 701 18
747 3z m-1193 -326 c9 -24 -12 -95 -40 -132 -24 -30 -71 -62 -94 -62 -15 0
-13 183 2 198 19 19 124 16 132 -4z m196 -26 c0 -24 9 -61 19 -84 20 -43 81
-101 118 -110 12 -3 24 -12 27 -19 2 -7 4 -98 3 -201 -2 -171 -4 -189 -19
-192 -14 -3 -18 3 -18 26 0 39 -35 89 -88 126 -40 28 -50 31 -125 31 -69 0
-89 -4 -127 -25 -67 -38 -93 -82 -88 -153 4 -46 10 -63 34 -88 38 -41 99 -69
151 -69 23 0 45 -5 48 -11 4 -6 16 -14 28 -18 18 -7 21 -15 18 -60 -3 -56 17
-101 44 -101 12 0 15 -14 15 -59 0 -52 -3 -61 -25 -75 -22 -15 -25 -23 -25
-81 l0 -65 -78 0 -79 0 0 58 c-1 31 -6 69 -12 84 -16 42 -76 103 -121 123
l-40 18 0 368 0 369 33 13 c77 33 129 102 142 190 l7 47 79 0 79 0 0 -42z
m158 -65 c1 -57 0 -103 -4 -103 -4 0 -22 9 -40 21 -54 33 -91 109 -85 177 1 9
18 12 64 10 l62 -3 3 -102z m1220 67 c64 -39 72 -66 72 -243 0 -181 -8 -212
-69 -249 -35 -22 -47 -23 -316 -28 l-280 -5 -62 -42 c-34 -24 -64 -43 -67 -43
-4 0 -6 117 -6 261 0 293 3 309 68 347 36 21 48 22 332 22 277 0 297 -1 328
-20z m-1353 -480 c42 -26 75 -74 75 -107 0 -24 -1 -24 -80 -25 -73 -1 -89 -13
-92 -72 l-3 -51 -35 3 c-50 5 -116 39 -140 72 -27 39 -27 110 0 135 12 10 18
25 15 32 -3 8 0 11 6 8 5 -4 15 -2 22 3 48 38 172 39 232 2z m373 -173 c6 -5
12 -29 12 -52 0 -23 -6 -47 -12 -53 -15 -11 -370 -17 -412 -6 -24 6 -26 10
-26 59 0 33 5 55 13 58 23 10 412 5 425 -6z m60 -204 l-3 -58 -220 0 -220 0
-3 44 c-6 75 -17 71 228 71 l221 0 -3 -57z m56 -109 c8 -20 8 -68 0 -88 -5
-14 -35 -16 -225 -16 l-219 0 0 53 c0 30 3 57 7 60 3 4 102 7 219 7 184 0 213
-2 218 -16z m-804 -39 c61 -32 108 -129 92 -190 -8 -27 -12 -30 -53 -31 -86
-1 -89 4 -89 128 0 69 4 108 10 108 6 0 24 -7 40 -15z m1348 -107 c4 -46 -10
-74 -51 -98 -29 -18 -52 -20 -269 -20 l-238 0 0 65 c0 49 3 65 14 65 7 0 19 7
26 15 11 13 49 15 264 13 l251 -3 3 -37z m-601 0 c19 -16 17 -104 -3 -112 -20
-8 -398 -8 -418 0 -12 5 -16 20 -16 58 0 29 3 56 6 59 12 11 417 7 431 -5z"/>
<path d="M3640 1561 l0 -71 -26 10 c-44 17 -74 11 -105 -19 -39 -40 -40 -96
-2 -141 25 -31 30 -32 79 -27 42 4 54 2 59 -10 4 -11 9 -13 16 -6 15 15 7 325
-8 331 -10 3 -13 -15 -13 -67z m-22 -101 c44 -42 15 -120 -45 -120 -38 0 -63
27 -63 67 0 64 63 95 108 53z"/>
<path d="M3315 1593 c-27 -69 -95 -268 -95 -279 0 -25 21 -15 31 16 11 29 12
30 78 30 l67 0 18 -36 c11 -24 20 -34 27 -27 12 12 -90 304 -107 310 -6 2 -15
-4 -19 -14z m46 -120 c15 -38 25 -71 22 -75 -5 -10 -103 -11 -103 -1 0 15 44
143 50 143 3 0 17 -30 31 -67z"/>
<path d="M1334 1381 c-29 -5 -34 -19 -34 -98 0 -50 4 -76 15 -87 12 -11 15
-43 15 -148 0 -144 -7 -183 -42 -235 -39 -57 -92 -87 -163 -91 -76 -5 -125 10
-171 51 -67 58 -78 94 -82 261 -3 129 -2 150 12 158 12 7 16 26 16 83 0 112
10 105 -156 105 -168 0 -166 1 -163 -105 2 -47 7 -69 20 -81 15 -13 17 -37 18
-174 2 -225 33 -311 149 -423 194 -184 487 -181 677 8 115 114 145 204 145
431 0 126 3 153 15 158 12 4 15 23 15 83 0 43 -4 84 -9 92 -7 12 -37 15 -133
15 -68 1 -133 -1 -144 -3z m-462 -49 c2 -9 1 -39 -2 -67 l-5 -50 -125 0 -125
0 -3 67 -3 67 118 3 c134 3 141 2 145 -20z m718 -46 c0 -42 -4 -65 -12 -68
-18 -7 -209 -8 -230 -2 -15 4 -18 17 -18 70 l0 64 130 0 130 0 0 -64z m-766
-102 c13 -5 16 -27 16 -133 0 -144 9 -188 52 -251 37 -55 83 -88 149 -103 l49
-12 0 -99 0 -99 -48 6 c-141 17 -283 119 -347 250 -41 85 -55 163 -55 307 0
107 4 123 30 133 21 8 135 8 154 1z m736 -146 c-1 -160 -8 -205 -50 -294 -58
-121 -209 -233 -337 -250 l-53 -7 0 100 0 100 39 7 c56 9 130 63 166 120 30
49 30 51 33 208 l3 158 100 0 99 0 0 -142z"/>
<path d="M1202 378 c2 -7 39 -30 81 -50 88 -43 101 -47 107 -33 5 10 -152 93
-178 94 -8 1 -12 -5 -10 -11z"/>
<path d="M2753 332 c-91 -46 -111 -62 -75 -62 25 0 182 77 182 89 0 22 -19 17
-107 -27z"/>
<path d="M1554 238 c-4 -5 -1 -14 7 -19 22 -13 189 -52 196 -45 12 12 -12 24
-81 41 -38 9 -80 21 -92 26 -15 5 -26 4 -30 -3z"/>
<path d="M2433 216 c-23 -8 -62 -17 -87 -20 -30 -5 -46 -12 -46 -22 0 -17 -5
-17 88 1 88 18 122 30 122 45 0 13 -25 12 -77 -4z"/>
<path d="M1922 158 c3 -9 32 -13 106 -13 140 0 139 19 -1 23 -85 2 -108 0
-105 -10z"/>
</g>
</svg>
