<?xml version="1.0" standalone="no"?>
<!DOCTYPE svg PUBLIC "-//W3C//DTD SVG 20010904//EN"
 "http://www.w3.org/TR/2001/REC-SVG-20010904/DTD/svg10.dtd">
<svg version="1.0" xmlns="http://www.w3.org/2000/svg"
 width="579.000000pt" height="553.000000pt" viewBox="0 0 579.000000 553.000000"
 preserveAspectRatio="xMidYMid meet">

<g transform="translate(0.000000,553.000000) scale(0.100000,-0.100000)"
fill="#b0a7d5" stroke-width="25" stroke="#b0a7d5">
<path d="M1782 5409 c-120 -22 -228 -105 -280 -217 -26 -54 -27 -66 -32 -262
-5 -164 -9 -212 -23 -242 -48 -104 6 -237 110 -273 36 -13 39 -16 54 -82 8
-37 26 -88 38 -112 29 -55 100 -132 146 -157 34 -18 35 -20 35 -80 0 -64 -7
-74 -50 -74 -46 0 -183 -54 -253 -99 -170 -111 -281 -274 -317 -462 -5 -27
-10 -133 -10 -235 -2 -193 4 -220 39 -191 11 9 13 37 8 142 -3 71 -1 165 4
208 23 186 123 360 273 472 64 47 146 89 156 78 4 -4 33 -81 64 -170 31 -90
59 -169 62 -177 10 -26 33 -26 63 -1 l29 25 6 -35 c4 -19 18 -48 32 -64 15
-18 20 -32 14 -36 -6 -3 -19 -24 -30 -46 -19 -35 -20 -55 -18 -217 3 -175 3
-177 26 -180 12 -2 22 0 22 5 1 372 3 385 71 413 23 10 35 10 59 0 56 -23 60
-38 60 -227 0 -144 3 -174 16 -188 13 -12 19 -13 31 -4 12 10 14 45 11 194 -3
180 -3 183 -30 220 l-27 38 25 36 c13 20 24 40 24 46 0 5 4 16 9 24 7 12 14
10 37 -8 22 -18 30 -19 40 -9 6 7 42 92 79 188 36 96 68 176 70 178 8 8 120
-50 179 -92 144 -103 247 -254 282 -416 8 -41 14 -127 14 -231 0 -132 3 -168
14 -172 28 -11 36 17 36 120 l0 103 125 0 125 0 0 -105 c0 -91 2 -106 18 -114
37 -20 42 4 42 195 0 165 2 183 18 188 9 3 82 19 161 36 80 17 150 34 155 37
44 26 210 172 217 191 16 42 10 73 -20 103 -45 44 -74 39 -182 -33 l-94 -63
-250 -5 c-154 -4 -260 -10 -277 -17 -14 -7 -39 -28 -55 -47 -15 -20 -32 -36
-36 -36 -4 0 -14 15 -22 33 -25 58 -112 172 -171 224 -112 95 -258 165 -396
188 l-38 6 0 59 c0 58 1 60 38 84 95 60 174 179 187 283 7 49 9 52 50 67 115
44 164 160 115 274 -17 40 -20 73 -22 232 l-3 185 -33 67 c-24 49 -45 76 -77
99 -46 33 -46 33 -29 99 2 8 -1 22 -6 30 -8 13 -57 15 -337 16 -180 0 -347 -3
-371 -7z m654 -65 c-3 -9 -6 -20 -6 -24 0 -16 -62 -80 -90 -95 -20 -10 -81
-15 -231 -18 -234 -4 -279 -15 -372 -91 -67 -54 -125 -163 -134 -253 -5 -53
-9 -62 -28 -67 -13 -3 -31 -9 -40 -12 -15 -6 -16 7 -12 157 2 90 9 181 16 201
26 81 115 169 203 199 47 16 90 18 377 19 291 0 323 -2 317 -16z m78 -137 c57
-59 66 -98 66 -275 l0 -151 -37 13 c-37 13 -38 14 -45 74 -10 90 -57 180 -123
240 l-55 49 39 18 c22 9 52 30 67 46 15 16 32 29 38 29 5 0 28 -19 50 -43z
m-262 -84 c113 -52 187 -160 196 -286 5 -73 12 -87 45 -87 55 0 113 -54 127
-117 18 -77 -25 -145 -110 -172 l-55 -18 -8 -64 c-15 -125 -94 -235 -205 -287
-53 -25 -67 -27 -192 -27 -126 0 -138 2 -190 27 -111 55 -182 155 -202 287
l-11 69 -45 12 c-57 14 -108 64 -117 114 -15 79 43 162 124 175 l35 6 12 80
c19 133 63 208 154 264 73 45 102 50 255 48 119 -2 147 -6 187 -24z m-167
-1120 c55 3 107 7 115 8 23 6 26 -112 5 -168 -29 -77 -105 -123 -178 -109 -91
17 -136 84 -137 202 0 39 2 73 5 76 4 3 25 1 48 -4 23 -6 87 -8 142 -5z m-240
-170 c10 -45 52 -98 95 -122 22 -12 40 -26 40 -31 0 -11 -129 -145 -134 -139
-8 8 -106 281 -106 294 0 15 20 22 66 24 27 1 33 -3 39 -26z m522 13 c2 -2
-21 -68 -51 -145 -31 -78 -56 -146 -56 -152 0 -5 -4 -9 -9 -9 -11 0 -131 129
-131 140 0 4 13 13 30 20 40 17 95 79 110 125 l12 37 46 -6 c25 -3 47 -8 49
-10z m-268 -231 c38 -41 41 -49 41 -99 0 -67 -26 -104 -81 -112 -31 -5 -42 -1
-70 24 -28 25 -33 36 -35 82 -3 50 0 55 43 101 25 27 49 49 53 49 4 0 26 -20
49 -45z m1671 -5 c0 -17 -149 -156 -196 -183 -8 -4 -85 -23 -171 -42 -214 -47
-203 -41 -203 -120 l0 -65 -125 0 -125 0 0 115 c0 125 11 164 53 187 15 9 96
14 275 16 l253 4 87 58 c49 31 95 59 102 62 22 8 50 -10 50 -32z"/>
<path d="M2185 4350 c-4 -6 -25 -20 -47 -31 -54 -28 -144 -23 -188 9 -37 27
-70 29 -70 3 0 -27 68 -70 131 -82 60 -13 111 -4 166 30 45 28 59 57 34 71
-13 7 -22 7 -26 0z"/>
<path d="M2733 5334 c-7 -3 -13 -14 -13 -24 0 -10 6 -20 13 -22 6 -2 85 -2
175 0 161 4 163 4 160 25 -3 21 -7 22 -163 24 -88 1 -166 -1 -172 -3z"/>
<path d="M3327 5303 c-4 -3 -7 -14 -7 -24 0 -13 13 -20 58 -28 31 -6 101 -21
155 -34 78 -18 102 -21 115 -11 13 10 14 15 4 27 -7 8 -23 17 -35 20 -78 18
-264 57 -273 57 -6 0 -14 -3 -17 -7z"/>
<path d="M3894 5135 c-7 -16 12 -45 28 -45 5 0 64 -27 130 -60 66 -33 126 -60
133 -60 20 0 27 17 16 38 -10 18 -263 142 -289 142 -7 0 -15 -7 -18 -15z"/>
<path d="M4417 4853 c-16 -16 -2 -34 66 -85 39 -30 94 -73 120 -96 54 -47 90
-56 85 -20 -2 14 -44 56 -118 115 -107 87 -137 103 -153 86z"/>
<path d="M2953 4735 c-18 -8 -42 -29 -53 -47 -19 -31 -20 -50 -20 -273 0 -273
10 -334 65 -425 89 -147 218 -226 385 -237 147 -9 263 34 370 137 61 59 97
120 127 215 15 51 18 96 18 306 l0 245 -27 36 c-16 21 -43 42 -64 48 -51 17
-182 8 -216 -14 -52 -34 -58 -65 -58 -288 0 -229 -6 -252 -75 -285 -32 -15
-40 -16 -77 -3 -29 11 -48 26 -63 50 -18 32 -20 57 -25 256 -6 246 -7 251 -77
280 -42 18 -169 17 -210 -1z m214 -67 c21 -20 23 -30 23 -120 l0 -98 -130 0
-130 0 0 94 c0 79 3 97 21 120 19 24 25 26 107 26 74 0 89 -3 109 -22z m597 9
c24 -17 32 -61 28 -152 l-4 -75 -129 0 -129 0 0 94 c0 79 3 97 21 120 19 25
25 26 108 26 56 0 94 -5 105 -13z m-574 -359 c0 -100 13 -139 60 -182 46 -41
74 -50 135 -44 97 11 144 81 145 216 l0 82 130 0 c117 0 130 -2 131 -17 6 -71
-4 -217 -17 -262 -20 -69 -68 -144 -126 -198 -221 -202 -576 -117 -689 166
-17 44 -23 83 -27 184 l-4 127 131 0 131 0 0 -72z"/>
<path d="M1030 4521 c-110 -119 -124 -137 -116 -157 12 -31 46 -6 150 109 86
96 105 122 95 133 -6 8 -17 14 -24 14 -8 0 -55 -45 -105 -99z"/>
<path d="M4863 4463 c-24 -8 -13 -34 40 -97 28 -35 72 -90 97 -124 46 -63 80
-80 80 -41 0 21 -65 116 -143 211 -41 49 -54 58 -74 51z"/>
<path d="M689 4068 c-81 -137 -103 -183 -96 -201 13 -34 37 -15 78 61 23 42
60 105 82 140 39 63 43 92 10 92 -12 0 -37 -31 -74 -92z"/>
<path d="M4340 4069 c-19 -6 -46 -20 -59 -32 -49 -45 -51 -62 -51 -437 0 -329
1 -353 20 -389 13 -27 33 -46 63 -60 42 -20 58 -21 406 -21 355 0 364 1 402
22 25 14 46 37 59 64 20 40 21 57 18 402 -3 349 -4 361 -24 389 -12 15 -36 37
-55 48 -32 19 -54 20 -389 22 -216 1 -369 -2 -390 -8z m753 -60 c55 -25 57
-37 57 -412 0 -332 -1 -345 -21 -370 -35 -45 -68 -48 -442 -45 l-349 3 -29 33
-29 32 0 346 c0 359 1 372 44 406 19 16 55 18 383 18 239 0 370 -4 386 -11z"/>
<path d="M4577 3819 c-39 -23 -46 -58 -42 -222 3 -87 9 -166 15 -177 13 -24
41 -40 71 -40 23 0 302 150 331 178 32 31 33 75 3 110 -15 18 -30 32 -35 32
-4 0 -68 29 -143 65 -136 65 -167 73 -200 54z m197 -110 c188 -91 188 -90 29
-180 -65 -37 -133 -74 -151 -84 -60 -30 -62 -24 -62 159 0 161 2 172 31 175 4
1 73 -31 153 -70z"/>
<path d="M477 3623 c-17 -30 -87 -274 -87 -302 0 -24 26 -39 41 -24 5 5 24 66
44 136 19 70 40 137 46 148 8 15 7 24 -2 35 -12 15 -35 19 -42 7z"/>
<path d="M1492 3333 c-4 -10 -7 -105 -7 -211 0 -159 3 -194 15 -202 35 -22 40
6 40 215 0 176 -2 204 -16 209 -22 9 -24 8 -32 -11z"/>
<path d="M2583 3343 c-20 -7 -18 -419 1 -426 31 -12 36 16 36 219 0 205 -3
219 -37 207z"/>
<path d="M340 3024 c-6 -15 -12 -93 -13 -173 -2 -140 -1 -146 18 -146 17 0 21
9 26 59 4 33 8 109 10 170 4 99 2 111 -13 114 -12 2 -21 -6 -28 -24z"/>
<path d="M3890 3033 c-56 -18 -100 -67 -100 -111 0 -40 -31 -117 -56 -139 -24
-22 -31 -23 -248 -23 -219 0 -223 0 -274 -26 -57 -28 -96 -69 -123 -129 -15
-33 -19 -66 -19 -180 0 -127 2 -145 24 -190 30 -65 69 -101 142 -130 l58 -24
68 -183 c37 -100 75 -188 84 -195 12 -8 51 -13 109 -13 129 0 125 -7 125 213
0 97 3 178 8 180 15 10 52 -13 66 -42 9 -16 23 -58 31 -93 18 -78 41 -109 93
-128 37 -13 47 -13 84 0 27 10 50 27 65 49 21 32 23 44 23 187 l0 154 45 11
c83 21 155 115 155 202 0 93 -57 171 -148 203 l-52 19 0 149 c0 132 -2 152
-20 181 -27 44 -96 73 -140 58z m88 -79 l22 -25 0 -505 0 -506 -29 -29 c-32
-31 -50 -35 -84 -17 -33 17 -44 37 -56 98 -15 75 -49 131 -91 152 -30 15 -65
18 -248 18 -230 0 -252 4 -306 55 -52 51 -66 97 -66 230 0 133 13 177 66 227
57 53 85 58 315 58 251 0 265 4 303 84 14 28 28 71 31 96 14 93 87 125 143 64z
m168 -405 c21 -17 54 -93 54 -122 0 -71 -71 -157 -130 -157 -19 0 -20 6 -20
153 0 85 3 156 6 160 7 7 70 -17 90 -34z m-518 -636 l2 -173 -78 0 -79 0 -60
168 c-34 92 -59 171 -56 175 2 4 64 6 136 5 l132 -3 3 -172z"/>
<path d="M4652 2940 c-18 -11 -41 -34 -52 -52 -20 -32 -20 -48 -18 -403 3
-352 4 -371 23 -397 48 -64 42 -63 461 -63 l381 0 37 29 c65 49 66 56 66 438
0 386 -3 404 -72 446 -35 22 -44 22 -414 22 -361 0 -381 -1 -412 -20z m797
-45 c42 -21 51 -61 51 -222 l0 -145 -36 -56 c-19 -32 -48 -78 -64 -105 -52
-84 -122 -108 -191 -64 -45 27 -79 68 -152 178 -85 130 -150 179 -237 179 -54
0 -110 -30 -154 -82 l-36 -43 0 158 0 159 31 29 31 29 365 0 c301 0 369 -3
392 -15z m-532 -322 c20 -16 70 -78 111 -139 40 -60 88 -124 105 -141 65 -69
180 -82 249 -30 19 15 50 54 69 87 19 32 38 60 42 60 5 0 7 -63 5 -140 -3
-137 -3 -140 -31 -167 l-27 -28 -363 -3 c-390 -2 -391 -2 -430 50 -18 24 -21
43 -21 145 -1 64 4 132 10 150 21 59 78 145 114 170 48 34 116 28 167 -14z"/>
<path d="M5226 2795 c-56 -30 -77 -89 -52 -148 19 -47 51 -67 107 -67 39 0 53
5 78 30 52 53 50 122 -7 173 -28 26 -90 32 -126 12z m102 -63 c20 -26 11 -72
-19 -94 -24 -19 -28 -19 -56 -4 -50 25 -52 88 -5 116 22 13 63 4 80 -18z"/>
<path d="M4210 2654 c-29 -34 -30 -38 -16 -53 15 -14 19 -12 53 21 23 23 34
42 30 52 -10 26 -33 19 -67 -20z"/>
<path d="M519 2535 c-59 -32 -59 -35 -59 -593 0 -341 4 -519 11 -540 6 -17 26
-41 44 -52 30 -19 49 -20 264 -20 l231 0 0 -220 c0 -318 2 -322 204 -330 l131
-5 5 -151 c4 -110 9 -156 19 -168 39 -46 31 -46 720 -46 l650 0 62 -40 c91
-59 174 -82 289 -83 115 0 189 19 280 73 244 143 337 452 212 703 -48 97 -152
201 -249 249 -86 43 -190 63 -285 54 l-68 -6 0 350 0 351 -102 111 c-57 61
-120 131 -141 155 l-39 43 -503 0 -503 0 -4 61 c-4 54 -9 66 -36 90 l-32 29
-538 0 c-445 -1 -541 -3 -563 -15z m1098 -57 c17 -16 23 -33 23 -64 l0 -42
-95 -4 c-92 -3 -96 -4 -127 -36 l-33 -32 -3 -150 -3 -150 -143 0 c-132 0 -146
-2 -171 -22 -39 -30 -55 -77 -55 -158 l0 -71 -37 -15 c-52 -22 -106 -11 -154
30 -37 31 -96 56 -134 56 -37 0 -96 -24 -127 -52 -17 -15 -33 -28 -35 -28 -2
0 -3 162 -3 360 0 347 1 361 20 380 19 19 33 20 537 20 l517 0 23 -22z m1034
-273 c4 -110 5 -116 32 -142 26 -26 34 -28 135 -33 l107 -5 2 -340 2 -340 -70
-34 c-101 -48 -196 -140 -244 -236 -52 -106 -72 -215 -58 -314 14 -94 44 -175
89 -242 19 -28 34 -53 34 -55 0 -2 -278 -4 -617 -4 l-617 0 -23 22 c-22 20
-23 28 -23 154 0 111 2 133 16 138 9 3 182 6 386 6 l371 0 33 36 34 35 0 541
0 540 -34 34 -34 34 -366 0 -366 0 0 139 c0 139 0 140 26 160 26 21 35 21 604
21 l578 0 3 -115z m153 -32 c43 -45 75 -86 72 -92 -4 -5 -36 -8 -73 -7 -50 3
-70 8 -80 22 -14 19 -19 168 -5 162 4 -1 43 -40 86 -85z m-635 -249 c21 -26
21 -36 21 -537 0 -511 0 -511 -22 -534 l-21 -23 -519 0 c-505 0 -519 1 -538
20 -19 19 -20 33 -20 538 0 508 0 519 20 540 l21 22 519 0 519 0 20 -26z
m-1408 -189 c73 -53 117 -68 186 -61 l63 7 0 -151 0 -150 -225 0 c-282 0 -265
-10 -265 158 l0 118 43 41 c55 53 74 62 123 63 28 0 52 -8 75 -25z m2418 -426
c101 -17 186 -62 261 -138 112 -114 164 -264 141 -411 -57 -369 -476 -551
-770 -335 -149 110 -229 289 -204 460 26 184 160 350 325 404 103 33 148 37
247 20z"/>
<path d="M792 2310 c-36 -22 -71 -88 -72 -133 0 -41 36 -105 73 -127 46 -28
124 -27 168 3 90 60 90 194 0 254 -45 30 -122 31 -169 3z m154 -61 c32 -30 39
-71 19 -113 -42 -88 -168 -71 -190 27 -8 33 20 86 56 105 32 17 86 8 115 -19z"/>
<path d="M2393 1743 c-22 -8 -15 -42 10 -48 12 -3 78 -4 147 -3 119 3 125 4
128 24 2 15 -4 23 -20 28 -27 7 -247 7 -265 -1z"/>
<path d="M2382 1498 c3 -23 5 -23 148 -23 143 0 145 0 148 23 3 22 3 22 -148
22 -151 0 -151 0 -148 -22z"/>
<path d="M2382 1278 c3 -22 8 -23 109 -26 84 -2 109 0 118 12 24 29 1 36 -115
36 -114 0 -115 0 -112 -22z"/>
<path d="M1444 1703 c-12 -2 -34 -18 -50 -34 l-29 -30 -3 -222 c-4 -242 2
-283 45 -316 54 -43 87 -32 289 95 199 126 221 147 210 212 -3 19 -13 43 -22
53 -25 28 -365 237 -394 242 -14 3 -35 3 -46 0z m126 -99 c36 -23 111 -71 167
-107 153 -99 155 -114 15 -204 -261 -168 -284 -179 -316 -147 -14 14 -16 47
-14 252 l3 236 24 12 c29 15 39 12 121 -42z"/>
<path d="M3077 1204 c-4 -4 -7 -27 -7 -51 l0 -43 -40 0 c-93 0 -130 -45 -130
-157 0 -129 31 -153 195 -153 133 0 145 -9 145 -103 0 -53 -4 -67 -23 -85 -21
-20 -34 -22 -121 -22 -53 0 -106 4 -116 10 -21 11 -40 60 -40 101 0 22 -5 29
-20 29 -17 0 -20 -7 -20 -50 0 -91 45 -140 129 -140 l40 0 3 -47 c3 -40 6 -48
23 -48 17 0 20 8 23 48 l3 47 42 0 c50 0 104 30 117 66 15 39 12 151 -5 184
-25 48 -61 60 -175 60 -56 0 -110 5 -120 10 -22 12 -42 76 -36 111 3 13 5 30
5 37 1 6 10 21 21 32 17 17 33 20 119 20 123 0 148 -14 153 -88 3 -40 6 -47
26 -50 20 -3 22 0 22 48 0 28 -7 64 -15 79 -17 34 -70 61 -118 61 -36 0 -36 0
-39 47 -2 34 -8 49 -18 51 -9 1 -19 0 -23 -4z"/>
<path d="M4272 2438 c-20 -25 2 -39 54 -36 41 3 49 6 49 23 0 17 -8 20 -46 23
-29 2 -50 -2 -57 -10z"/>
<path d="M4197 2253 c-23 -23 36 -102 67 -90 25 10 19 30 -17 65 -35 34 -40
36 -50 25z"/>
<path d="M4297 1879 c-51 -8 -86 -35 -108 -82 -17 -39 -19 -70 -19 -382 0
-334 0 -342 23 -385 16 -33 34 -51 67 -67 43 -23 51 -23 399 -23 334 0 357 1
396 20 26 13 49 34 63 58 21 38 21 50 22 395 1 347 1 358 -20 395 -40 71 -42
71 -436 74 -193 2 -367 0 -387 -3z m747 -60 c52 -24 57 -61 54 -426 l-3 -333
-33 -32 -32 -33 -360 -3 c-309 -2 -364 -1 -390 13 -58 30 -60 41 -60 404 0
363 4 392 60 414 30 11 738 8 764 -4z"/>
<path d="M4435 1629 c-11 -6 -29 -22 -40 -37 -29 -39 -27 -142 4 -201 32 -62
111 -142 188 -192 l65 -43 34 19 c49 26 154 115 187 158 38 50 57 109 57 176
0 89 -44 131 -137 131 -47 0 -65 -7 -117 -44 -26 -19 -27 -18 -49 2 -12 11
-35 25 -50 31 -35 13 -115 13 -142 0z m165 -77 c14 -16 31 -37 37 -48 12 -18
14 -18 35 10 50 65 68 76 124 76 64 0 84 -21 84 -90 -1 -66 -32 -124 -104
-194 -91 -87 -108 -95 -154 -71 -62 33 -167 145 -186 200 -27 82 -14 141 33
151 14 3 31 7 36 8 23 6 72 -16 95 -42z"/>
<path d="M4591 769 c-25 -22 -78 -65 -118 -95 -40 -30 -73 -61 -73 -68 0 -26
27 -24 69 3 69 46 211 171 211 187 0 27 -45 13 -89 -27z"/>
<path d="M4155 471 c-6 -5 -68 -36 -140 -69 -97 -45 -130 -65 -130 -79 0 -30
42 -19 179 46 112 53 127 63 124 82 -3 25 -19 34 -33 20z"/>
<path d="M2134 266 c-4 -10 -3 -21 2 -26 11 -11 271 -80 302 -80 18 0 23 5 20
21 -3 19 -21 26 -133 55 -192 50 -184 49 -191 30z"/>
<path d="M3565 239 c-16 -5 -79 -19 -138 -30 -105 -21 -133 -37 -110 -60 10
-10 177 18 271 46 40 12 52 20 52 35 0 22 -23 25 -75 9z"/>
<path d="M2713 154 c-3 -9 -1 -20 4 -25 5 -5 79 -13 164 -16 137 -5 156 -4
168 11 8 10 10 20 5 25 -5 5 -82 11 -172 14 -140 5 -164 4 -169 -9z"/>
</g>
</svg>
