<?xml version="1.0" standalone="no"?>
<!DOCTYPE svg PUBLIC "-//W3C//DTD SVG 20010904//EN"
 "http://www.w3.org/TR/2001/REC-SVG-20010904/DTD/svg10.dtd">
<svg version="1.0" xmlns="http://www.w3.org/2000/svg"
 width="563.000000pt" height="509.000000pt" viewBox="0 0 563.000000 509.000000"
 preserveAspectRatio="xMidYMid meet">

<g transform="translate(0.000000,509.000000) scale(0.100000,-0.100000)"
fill="#b0a7d5" stroke-width="25" stroke="#b0a7d5">
<path d="M3472 4961 c-65 -5 -77 -9 -98 -34 -20 -23 -24 -39 -24 -87 0 -59 0
-60 -40 -80 l-40 -20 -43 38 c-78 71 -94 67 -201 -53 -70 -79 -77 -91 -72
-119 4 -17 25 -50 48 -73 40 -41 41 -43 28 -75 -18 -45 -37 -58 -86 -58 -90 0
-103 -24 -96 -170 2 -58 11 -117 18 -132 16 -30 52 -41 121 -36 46 3 46 3 61
-39 l16 -42 -37 -40 c-29 -32 -37 -49 -37 -79 0 -32 7 -45 53 -88 140 -135
162 -141 236 -68 44 45 46 46 82 35 40 -12 49 -29 49 -94 0 -27 7 -45 26 -64
l26 -26 121 7 c155 9 167 18 167 116 l0 66 36 17 c39 19 36 20 102 -35 56 -48
85 -40 165 43 70 73 107 124 107 147 0 7 -23 37 -51 67 l-51 54 17 39 c17 38
20 40 73 45 37 4 62 13 79 29 25 23 25 25 21 141 -5 106 -8 120 -28 142 -20
22 -32 25 -89 25 l-66 0 -17 41 -18 41 40 46 c65 73 58 94 -56 197 -105 93
-127 97 -188 30 -45 -49 -61 -53 -106 -30 -28 14 -30 20 -30 71 0 48 -4 59
-29 85 -32 31 -37 32 -189 20z m152 -63 c2 -7 8 -40 12 -73 9 -59 10 -60 57
-83 88 -42 100 -41 153 17 26 28 50 51 53 51 16 0 151 -133 151 -149 0 -9 -14
-30 -31 -47 -50 -47 -53 -67 -20 -138 16 -35 36 -66 45 -69 9 -4 43 -4 75 -1
47 5 59 4 64 -9 8 -23 11 -193 3 -206 -4 -6 -31 -11 -60 -11 -66 0 -88 -17
-110 -84 -23 -71 -21 -80 29 -127 25 -23 45 -48 45 -55 0 -8 -24 -39 -52 -70
-29 -31 -57 -62 -61 -70 -13 -23 -38 -16 -83 26 -24 22 -53 40 -64 40 -24 0
-121 -47 -132 -64 -4 -6 -8 -41 -8 -77 l0 -66 -46 -7 c-26 -3 -75 -6 -109 -6
l-62 0 -9 72 c-9 72 -9 73 -49 92 -22 10 -57 21 -78 24 -35 4 -42 1 -87 -43
l-48 -48 -24 19 c-71 56 -127 108 -132 120 -3 9 11 33 34 58 46 49 50 78 21
141 -27 60 -45 70 -120 70 l-66 0 -6 100 c-4 61 -2 105 4 113 5 7 32 12 62 12
36 0 59 6 73 18 19 16 52 99 52 131 0 8 -22 38 -50 66 l-50 50 71 78 c39 42
74 77 78 77 4 0 27 -18 52 -40 28 -25 54 -40 71 -40 33 0 124 45 132 66 3 9 6
44 6 79 l0 64 43 4 c101 9 168 7 171 -5z"/>
<path d="M3460 4597 c-96 -27 -194 -119 -231 -216 -97 -251 143 -516 405 -448
96 26 187 103 229 196 30 65 29 205 -1 274 -67 149 -249 237 -402 194z m209
-73 c148 -74 205 -231 137 -376 -102 -216 -401 -220 -511 -8 -36 69 -35 182 1
253 72 137 240 197 373 131z"/>
<path d="M2126 4785 c-47 -17 -66 -33 -83 -72 -28 -69 -4 -142 58 -173 72 -37
147 -16 189 52 l20 33 127 5 c120 5 128 6 128 25 0 19 -8 20 -127 23 l-127 3
-21 37 c-36 63 -99 89 -164 67z m99 -70 c43 -42 26 -114 -31 -136 -31 -11 -88
10 -103 39 -45 84 67 165 134 97z"/>
<path d="M1514 4682 c-108 -76 -130 -104 -87 -110 20 -3 101 49 216 139 22 17
18 49 -6 49 -8 0 -63 -35 -123 -78z"/>
<path d="M4569 4514 c-11 -13 1 -29 82 -110 96 -96 129 -114 129 -70 0 16 -24
46 -79 99 -95 91 -114 102 -132 81z"/>
<path d="M1138 4358 c-63 -65 -88 -97 -86 -112 6 -39 34 -22 126 77 75 80 91
101 81 113 -6 8 -16 14 -21 14 -6 0 -50 -41 -100 -92z"/>
<path d="M2293 4343 c-9 -3 -13 -29 -13 -79 l0 -74 -158 0 -157 0 -23 43 c-75
142 -282 90 -282 -72 0 -51 51 -121 100 -138 68 -24 155 10 184 72 l17 35 182
0 c100 0 187 4 194 8 7 4 13 38 15 82 l3 75 134 2 c135 2 156 7 144 40 -4 10
-40 13 -167 12 -88 0 -167 -3 -173 -6z m-419 -114 c56 -66 19 -154 -64 -154
-72 0 -118 72 -86 134 20 38 41 50 88 51 28 0 42 -7 62 -31z"/>
<path d="M4913 4163 c-23 -8 -14 -32 35 -101 27 -37 58 -83 70 -104 25 -40 42
-50 62 -38 18 11 5 40 -67 148 -56 83 -77 103 -100 95z"/>
<path d="M872 4028 c-65 -98 -114 -189 -108 -203 11 -31 35 -13 81 63 26 42
58 93 71 113 29 43 31 69 4 69 -11 0 -30 -17 -48 -42z"/>
<path d="M2315 3963 c-83 -23 -124 -128 -81 -211 23 -44 93 -77 145 -67 46 8
99 48 107 80 6 25 7 25 129 25 99 0 127 3 139 16 40 40 3 54 -141 54 l-118 0
-15 32 c-8 18 -27 40 -41 51 -27 19 -90 30 -124 20z m103 -79 c12 -14 22 -38
22 -53 0 -35 -32 -77 -65 -85 -25 -6 -77 13 -90 34 -25 40 -6 102 38 124 38
18 64 13 95 -20z"/>
<path d="M5166 3725 c-3 -9 9 -46 28 -83 18 -37 41 -91 51 -119 13 -37 24 -53
36 -53 29 0 31 16 11 72 -40 111 -85 198 -103 198 -9 0 -20 -7 -23 -15z"/>
<path d="M640 3598 c-40 -89 -83 -217 -76 -233 10 -28 39 -12 55 30 7 22 29
79 48 126 19 47 31 93 27 102 -11 29 -34 18 -54 -25z"/>
<path d="M956 3274 c-15 -14 -16 -138 -14 -1322 l3 -1307 244 -3 c189 -2 246
1 253 10 4 7 8 75 8 151 0 158 10 190 65 213 40 16 126 17 626 7 l334 -6 32
-34 32 -34 3 -152 3 -152 245 0 245 0 6 70 c10 105 10 2548 1 2563 -7 9 -64
12 -253 10 l-244 -3 -5 -155 c-5 -162 -12 -187 -55 -210 -14 -7 -171 -10 -504
-8 l-484 3 -21 28 c-19 25 -22 46 -26 185 l-5 157 -237 3 c-205 2 -238 0 -252
-14z m124 -114 c0 -62 3 -74 25 -95 19 -20 34 -25 72 -25 53 0 62 4 86 40 12
16 17 45 17 87 l0 63 54 0 54 0 4 -132 c3 -149 15 -184 78 -225 l33 -23 484 0
c469 0 485 1 524 21 64 32 79 76 79 232 l0 128 48 -3 47 -3 2 -65 c3 -90 22
-114 95 -118 50 -3 58 0 77 24 17 21 21 41 21 95 l0 69 55 0 55 0 0 -1271 0
-1270 -52 3 -53 3 -5 92 c-6 117 -18 133 -92 133 -83 -1 -92 -13 -98 -128 l-5
-97 -45 0 -45 0 -5 140 c-6 160 -15 187 -78 223 -40 22 -41 22 -518 22 -477 0
-479 0 -519 -23 -68 -38 -85 -86 -85 -239 l0 -128 -54 0 -54 0 -4 96 c-3 86
-5 98 -27 115 -34 28 -117 26 -148 -3 -21 -19 -23 -30 -23 -115 l0 -93 -39 0
c-26 0 -41 5 -45 16 -8 22 -8 2509 1 2517 3 4 24 7 45 7 l38 0 0 -70z m140 6
c0 -49 -4 -65 -16 -70 -26 -10 -64 5 -69 28 -3 18 -1 95 4 104 0 1 19 2 41 2
l40 0 0 -64z m1608 2 l-3 -63 -42 -3 -43 -3 0 65 0 66 45 0 46 0 -3 -62z
m-1610 -2385 l3 -83 -41 0 c-22 0 -40 3 -41 8 0 4 -2 16 -5 27 -2 11 -1 46 2
78 l6 58 37 -3 36 -3 3 -82z m1607 2 l0 -80 -42 -3 -43 -3 0 79 c0 43 3 82 7
86 4 4 23 6 43 4 l35 -3 0 -80z"/>
<path d="M1105 2764 c-24 -26 -25 -33 -25 -156 0 -125 1 -130 26 -155 22 -22
32 -25 79 -21 85 7 94 24 95 176 0 123 0 124 -29 153 -24 24 -38 29 -76 29
-37 0 -51 -5 -70 -26z m115 -154 c0 -119 0 -120 -25 -126 -37 -9 -52 1 -59 41
-8 39 -6 171 2 193 2 7 21 12 43 12 l39 0 0 -120z"/>
<path d="M2715 2765 c-24 -23 -25 -29 -25 -153 0 -116 2 -132 21 -156 18 -22
28 -26 74 -26 46 0 56 4 74 26 19 24 21 40 21 160 0 131 0 133 -26 153 -39 31
-107 29 -139 -4z m113 -149 c3 -115 -4 -136 -42 -136 -40 0 -46 18 -46 130 0
59 3 110 7 114 4 4 23 6 43 4 l35 -3 3 -109z"/>
<path d="M1484 2491 c-25 -12 -50 -33 -65 -57 l-24 -39 -3 -429 c-1 -267 2
-443 8 -466 6 -23 26 -52 49 -73 53 -47 74 -49 596 -45 477 3 468 2 517 70
l23 33 3 447 c3 503 4 495 -69 547 l-42 31 -476 0 c-442 0 -479 -2 -517 -19z
m996 -49 c61 -30 60 -24 58 -505 l-3 -439 -33 -29 -32 -29 -476 0 -476 0 -34
34 -34 34 0 431 c0 372 2 436 16 462 29 57 36 58 529 59 409 0 453 -2 485 -18z"/>
<path d="M1130 2173 c-41 -15 -50 -44 -50 -174 0 -159 8 -174 95 -174 50 0 60
3 81 28 22 26 24 36 24 148 0 120 0 121 -29 150 -23 22 -38 29 -68 28 -21 0
-45 -3 -53 -6z m90 -173 l0 -120 -39 0 -39 0 -6 48 c-3 26 -3 72 -1 102 2 30
4 63 4 73 1 13 10 17 41 17 l40 0 0 -120z"/>
<path d="M2715 2155 c-24 -23 -25 -29 -25 -153 0 -162 8 -177 93 -177 91 0 97
11 97 172 0 129 -1 135 -25 158 -18 19 -35 25 -70 25 -35 0 -52 -6 -70 -25z
m110 -155 l0 -115 -40 0 -40 0 -3 104 c-1 58 0 111 3 118 3 10 17 13 42 11
l38 -3 0 -115z"/>
<path d="M1106 1547 c-25 -25 -26 -31 -26 -146 0 -67 5 -131 11 -144 25 -55
114 -64 161 -17 l30 30 -4 130 c-4 153 -8 161 -92 168 -48 4 -57 2 -80 -21z
m114 -157 l0 -120 -39 0 c-34 0 -40 3 -46 27 -3 15 -3 69 0 120 l7 93 39 0 39
0 0 -120z"/>
<path d="M2715 1545 c-24 -23 -25 -29 -25 -153 0 -163 8 -177 95 -176 88 0 95
13 95 179 0 132 0 134 -26 154 -39 31 -107 29 -139 -4z m113 -152 l-3 -118
-40 0 -40 0 -3 104 c-1 58 0 111 2 118 3 8 22 13 46 13 l41 0 -3 -117z"/>
<path d="M5343 3265 c-11 -19 37 -259 55 -277 10 -10 15 -9 28 4 15 15 14 26
-11 135 -35 151 -50 179 -72 138z"/>
<path d="M505 3146 c-9 -13 -21 -66 -26 -117 -17 -149 -17 -154 8 -157 25 -4
24 -7 43 133 7 50 15 104 17 121 6 41 -20 53 -42 20z"/>
<path d="M4355 3080 c-124 -19 -254 -59 -348 -106 -372 -189 -602 -578 -584
-989 22 -501 363 -903 847 -1001 209 -42 426 -23 614 55 263 109 486 336 587
596 95 247 91 565 -11 800 -139 323 -437 561 -790 635 -76 16 -243 21 -315 10z
m279 -60 c133 -19 361 -112 431 -177 11 -10 36 -29 55 -43 19 -13 61 -51 94
-85 196 -202 301 -513 267 -797 -15 -130 -32 -194 -77 -301 -108 -258 -338
-466 -614 -555 -197 -63 -448 -58 -649 13 -332 117 -580 410 -647 763 -20 106
-14 334 11 426 65 236 208 446 395 578 217 153 471 214 734 178z"/>
<path d="M4006 2603 c-3 -10 -5 -38 -4 -61 2 -50 -2 -55 -45 -58 -54 -3 -56
-3 -77 -24 -15 -15 -20 -33 -20 -79 0 -79 19 -102 88 -109 l52 -5 0 -417 c0
-230 3 -425 6 -434 8 -21 40 -21 48 0 3 9 6 204 6 435 l0 419 35 0 c42 0 90
22 99 45 3 9 6 41 6 71 0 57 -21 92 -57 95 -10 1 -25 3 -33 4 -8 1 -23 3 -32
4 -14 1 -18 13 -20 64 -3 55 -5 62 -25 65 -14 2 -23 -3 -27 -15z m139 -223 l0
-45 -115 0 -115 0 -3 33 c-6 62 -4 63 120 60 l113 -3 0 -45z"/>
<path d="M4436 2604 c-4 -10 -6 -157 -6 -328 0 -171 0 -337 0 -368 l0 -58 -48
0 c-70 0 -92 -26 -92 -108 0 -81 19 -102 90 -102 l50 0 0 -104 c0 -117 4 -136
31 -136 17 0 19 11 21 118 l3 117 52 3 c69 4 93 32 93 107 0 73 -21 98 -91
105 l-54 5 -3 383 c-2 366 -3 382 -21 382 -10 0 -22 -7 -25 -16z m134 -864 l0
-51 -112 3 -113 3 -3 33 c-6 61 -3 62 118 62 l110 0 0 -50z"/>
<path d="M4867 2614 c-4 -4 -7 -112 -7 -241 l0 -233 -46 0 c-37 0 -51 -5 -75
-29 -32 -32 -39 -88 -18 -135 11 -23 66 -58 86 -55 4 1 18 1 30 0 l23 -1 2
-257 c3 -243 4 -258 22 -261 10 -2 22 2 27 10 5 7 9 124 9 259 l0 246 47 6
c66 7 93 40 93 111 0 73 -20 97 -88 104 l-52 5 -2 236 c-3 229 -4 236 -23 239
-12 2 -24 0 -28 -4z m134 -548 c8 -16 8 -34 2 -53 l-10 -28 -109 0 -109 0 -3
39 c-6 65 -4 66 113 66 102 0 106 -1 116 -24z"/>
<path d="M454 2659 c-10 -17 -5 -235 6 -264 6 -16 17 -25 31 -25 21 0 21 2 14
138 -7 127 -14 162 -36 162 -4 0 -11 -5 -15 -11z"/>
<path d="M496 2155 c-3 -8 9 -72 28 -142 24 -95 37 -129 49 -131 9 -2 20 4 24
14 7 19 -43 241 -60 262 -13 16 -34 15 -41 -3z"/>
<path d="M4298 578 c-75 -48 -108 -76 -108 -89 0 -35 43 -21 148 48 98 65 118
85 106 104 -11 19 -42 6 -146 -63z"/>
<path d="M1800 422 c0 -20 47 -47 174 -101 74 -31 99 -31 94 1 -2 13 -24 28
-68 47 -36 15 -86 37 -112 49 -58 27 -88 28 -88 4z"/>
<path d="M3865 350 c-93 -38 -121 -54 -123 -70 -4 -26 16 -26 91 0 114 40 189
79 185 98 -5 28 -27 24 -153 -28z"/>
<path d="M2265 251 c-14 -23 18 -40 124 -65 123 -30 144 -31 160 -12 18 21 -6
34 -110 57 -139 30 -165 33 -174 20z"/>
<path d="M3375 213 c-99 -18 -125 -28 -125 -48 0 -22 103 -19 203 4 82 20 104
32 93 50 -9 14 -72 12 -171 -6z"/>
<path d="M2761 171 c-26 -16 -4 -38 45 -45 73 -10 232 -7 239 4 3 6 3 19 0 30
-6 19 -15 20 -138 20 -73 0 -138 -4 -146 -9z"/>
</g>
</svg>
